frame:0    pts:40448   pts_time:3.16
lavfi.scene_score=0.396722
frame:1    pts:102400  pts_time:8
lavfi.scene_score=0.420987
frame:2    pts:141312  pts_time:11.04
lavfi.scene_score=0.373085
frame:3    pts:142848  pts_time:11.16
lavfi.scene_score=0.339442
frame:4    pts:144384  pts_time:11.28
lavfi.scene_score=0.413333
frame:5    pts:148480  pts_time:11.6
lavfi.scene_score=0.431755
frame:6    pts:150528  pts_time:11.76
lavfi.scene_score=0.291587
frame:7    pts:153600  pts_time:12
lavfi.scene_score=0.292394
frame:8    pts:155136  pts_time:12.12
lavfi.scene_score=0.296735
frame:9    pts:158720  pts_time:12.4
lavfi.scene_score=0.314004
frame:10   pts:162304  pts_time:12.68
lavfi.scene_score=0.322012
frame:11   pts:165376  pts_time:12.92
lavfi.scene_score=0.337424
frame:12   pts:166912  pts_time:13.04
lavfi.scene_score=0.320702
frame:13   pts:168448  pts_time:13.16
lavfi.scene_score=0.561128
frame:14   pts:169984  pts_time:13.28
lavfi.scene_score=0.372001
frame:15   pts:176128  pts_time:13.76
lavfi.scene_score=0.377145
frame:16   pts:186880  pts_time:14.6
lavfi.scene_score=0.333362
frame:17   pts:194560  pts_time:15.2
lavfi.scene_score=0.430113
frame:18   pts:200704  pts_time:15.68
lavfi.scene_score=0.596255
frame:19   pts:215040  pts_time:16.8
lavfi.scene_score=0.311456
frame:20   pts:222720  pts_time:17.4
lavfi.scene_score=0.296425
frame:21   pts:242688  pts_time:18.96
lavfi.scene_score=0.344097
frame:22   pts:255488  pts_time:19.96
lavfi.scene_score=0.479886
frame:23   pts:266752  pts_time:20.84
lavfi.scene_score=0.386000
frame:24   pts:308224  pts_time:24.08
lavfi.scene_score=0.274596
frame:25   pts:317952  pts_time:24.84
lavfi.scene_score=0.397588
frame:26   pts:399360  pts_time:31.2
lavfi.scene_score=0.314085
frame:27   pts:421888  pts_time:32.96
lavfi.scene_score=0.360761
frame:28   pts:444416  pts_time:34.72
lavfi.scene_score=0.376312
frame:29   pts:513536  pts_time:40.12
lavfi.scene_score=0.403985
frame:30   pts:526336  pts_time:41.12
lavfi.scene_score=0.390543
frame:31   pts:543744  pts_time:42.48
lavfi.scene_score=0.554527
frame:32   pts:579584  pts_time:45.28
lavfi.scene_score=0.488784
frame:33   pts:657408  pts_time:51.36
lavfi.scene_score=0.420721
frame:34   pts:871424  pts_time:68.08
lavfi.scene_score=0.397559
frame:35   pts:912896  pts_time:71.32
lavfi.scene_score=0.254277
frame:36   pts:1055232 pts_time:82.44
lavfi.scene_score=0.485577
frame:37   pts:1074176 pts_time:83.92
lavfi.scene_score=0.378868
frame:38   pts:1088000 pts_time:85
lavfi.scene_score=0.327353
frame:39   pts:1116160 pts_time:87.2
lavfi.scene_score=0.352479
frame:40   pts:1139200 pts_time:89
lavfi.scene_score=0.367326
frame:41   pts:1158144 pts_time:90.48
lavfi.scene_score=0.300436
frame:42   pts:1168384 pts_time:91.28
lavfi.scene_score=0.349061
frame:43   pts:1184256 pts_time:92.52
lavfi.scene_score=0.346619
frame:44   pts:1195520 pts_time:93.4
lavfi.scene_score=0.402719
frame:45   pts:1231872 pts_time:96.24
lavfi.scene_score=0.313462
frame:46   pts:1303040 pts_time:101.8
lavfi.scene_score=0.362669
frame:47   pts:1307136 pts_time:102.12
lavfi.scene_score=0.479601
frame:48   pts:1388032 pts_time:108.44
lavfi.scene_score=0.342638
frame:49   pts:1395200 pts_time:109
lavfi.scene_score=0.612381
frame:50   pts:1404928 pts_time:109.76
lavfi.scene_score=0.677421
frame:51   pts:1425408 pts_time:111.36
lavfi.scene_score=0.345106
frame:52   pts:1445888 pts_time:112.96
lavfi.scene_score=0.672777
frame:53   pts:1452544 pts_time:113.48
lavfi.scene_score=0.553173
frame:54   pts:1466880 pts_time:114.6
lavfi.scene_score=0.261689
frame:55   pts:1517568 pts_time:118.56
lavfi.scene_score=0.320623
frame:56   pts:1529344 pts_time:119.48
lavfi.scene_score=0.254362
frame:57   pts:1540096 pts_time:120.32
lavfi.scene_score=0.252597
frame:58   pts:1554432 pts_time:121.44
lavfi.scene_score=0.334946
frame:59   pts:1561088 pts_time:121.96
lavfi.scene_score=0.318952
frame:60   pts:1574912 pts_time:123.04
lavfi.scene_score=0.261250
frame:61   pts:1597440 pts_time:124.8
lavfi.scene_score=0.383797
frame:62   pts:1619456 pts_time:126.52
lavfi.scene_score=0.447368
frame:63   pts:1643008 pts_time:128.36
lavfi.scene_score=0.394455
frame:64   pts:1678336 pts_time:131.12
lavfi.scene_score=0.256856
frame:65   pts:1817600 pts_time:142
lavfi.scene_score=0.316200
frame:66   pts:1832448 pts_time:143.16
lavfi.scene_score=0.392088
frame:67   pts:1850368 pts_time:144.56
lavfi.scene_score=0.314005
frame:68   pts:1857024 pts_time:145.08
lavfi.scene_score=0.488104
frame:69   pts:1893376 pts_time:147.92
lavfi.scene_score=0.401738
frame:70   pts:1906688 pts_time:148.96
lavfi.scene_score=0.500266
frame:71   pts:1927680 pts_time:150.6
lavfi.scene_score=0.360448
frame:72   pts:1997824 pts_time:156.08
lavfi.scene_score=0.442858
frame:73   pts:2354688 pts_time:183.96
lavfi.scene_score=0.313666
frame:74   pts:2443776 pts_time:190.92
lavfi.scene_score=0.365773
frame:75   pts:2564096 pts_time:200.32
lavfi.scene_score=0.558916
frame:76   pts:2577920 pts_time:201.4
lavfi.scene_score=0.385823
frame:77   pts:2744320 pts_time:214.4
lavfi.scene_score=0.273343
frame:78   pts:2989056 pts_time:233.52
lavfi.scene_score=0.654369
frame:79   pts:3058688 pts_time:238.96
lavfi.scene_score=0.790214
frame:80   pts:3081728 pts_time:240.76
lavfi.scene_score=0.615507
frame:81   pts:3089920 pts_time:241.4
lavfi.scene_score=0.765787
frame:82   pts:3103232 pts_time:242.44
lavfi.scene_score=0.362556
frame:83   pts:3135488 pts_time:244.96
lavfi.scene_score=0.479497
frame:84   pts:3154432 pts_time:246.44
lavfi.scene_score=0.786613
frame:85   pts:3182592 pts_time:248.64
lavfi.scene_score=0.772233
frame:86   pts:3198464 pts_time:249.88
lavfi.scene_score=0.433988
frame:87   pts:3241472 pts_time:253.24
lavfi.scene_score=0.388674
frame:88   pts:3301376 pts_time:257.92
lavfi.scene_score=0.502219
frame:89   pts:3340288 pts_time:260.96
lavfi.scene_score=0.718173
frame:90   pts:3362304 pts_time:262.68
lavfi.scene_score=0.280423
frame:91   pts:3380224 pts_time:264.08
lavfi.scene_score=0.670715
frame:92   pts:3389440 pts_time:264.8
lavfi.scene_score=0.595501
frame:93   pts:3412480 pts_time:266.6
lavfi.scene_score=0.252588
frame:94   pts:3478016 pts_time:271.72
lavfi.scene_score=0.617559
frame:95   pts:3500544 pts_time:273.48
lavfi.scene_score=0.518997
frame:96   pts:3514880 pts_time:274.6
lavfi.scene_score=0.519194
frame:97   pts:3535872 pts_time:276.24
lavfi.scene_score=0.410193
frame:98   pts:3587584 pts_time:280.28
lavfi.scene_score=0.255816
frame:99   pts:3601920 pts_time:281.4
lavfi.scene_score=0.543086
frame:100  pts:3628544 pts_time:283.48
lavfi.scene_score=0.616520
frame:101  pts:3663872 pts_time:286.24
lavfi.scene_score=0.634512
frame:102  pts:3693568 pts_time:288.56
lavfi.scene_score=0.652631
frame:103  pts:3762688 pts_time:293.96
lavfi.scene_score=0.286354
frame:104  pts:3788800 pts_time:296
lavfi.scene_score=0.754166
frame:105  pts:3810304 pts_time:297.68
lavfi.scene_score=0.566453
frame:106  pts:3837952 pts_time:299.84
lavfi.scene_score=0.644112
frame:107  pts:3885056 pts_time:303.52
lavfi.scene_score=0.439777
frame:108  pts:3927040 pts_time:306.8
lavfi.scene_score=0.497988
frame:109  pts:3951616 pts_time:308.72
lavfi.scene_score=0.476407
frame:110  pts:3986432 pts_time:311.44
lavfi.scene_score=0.553682
frame:111  pts:4014080 pts_time:313.6
lavfi.scene_score=0.615358
frame:112  pts:4073984 pts_time:318.28
lavfi.scene_score=0.253814
frame:113  pts:4090880 pts_time:319.6
lavfi.scene_score=0.667302
frame:114  pts:4155392 pts_time:324.64
lavfi.scene_score=0.763246
frame:115  pts:4164608 pts_time:325.36
lavfi.scene_score=0.649841
frame:116  pts:4173312 pts_time:326.04
lavfi.scene_score=0.373339
frame:117  pts:4200960 pts_time:328.2
lavfi.scene_score=0.661224
frame:118  pts:4215808 pts_time:329.36
lavfi.scene_score=0.723915
frame:119  pts:4228096 pts_time:330.32
lavfi.scene_score=0.684354
frame:120  pts:4240384 pts_time:331.28
lavfi.scene_score=0.621813
frame:121  pts:4254720 pts_time:332.4
lavfi.scene_score=0.398409
frame:122  pts:4268544 pts_time:333.48
lavfi.scene_score=0.782591
frame:123  pts:4288000 pts_time:335
lavfi.scene_score=0.310967
frame:124  pts:4301312 pts_time:336.04
lavfi.scene_score=0.650635
frame:125  pts:4322816 pts_time:337.72
lavfi.scene_score=0.469024
frame:126  pts:4391936 pts_time:343.12
lavfi.scene_score=0.566800
frame:127  pts:4448256 pts_time:347.52
lavfi.scene_score=0.569446
frame:128  pts:4474880 pts_time:349.6
lavfi.scene_score=0.487032
frame:129  pts:4519424 pts_time:353.08
lavfi.scene_score=0.626048
frame:130  pts:4525056 pts_time:353.52
lavfi.scene_score=0.351235
frame:131  pts:4527104 pts_time:353.68
lavfi.scene_score=0.263037
frame:132  pts:4532736 pts_time:354.12
lavfi.scene_score=0.674127
frame:133  pts:4583936 pts_time:358.12
lavfi.scene_score=0.619216
frame:134  pts:4589568 pts_time:358.56
lavfi.scene_score=0.384216
frame:135  pts:4599808 pts_time:359.36
lavfi.scene_score=0.373483
frame:136  pts:4675584 pts_time:365.28
lavfi.scene_score=0.554572
frame:137  pts:4704256 pts_time:367.52
lavfi.scene_score=0.518440
frame:138  pts:4733952 pts_time:369.84
lavfi.scene_score=0.483000
frame:139  pts:4754944 pts_time:371.48
lavfi.scene_score=0.770563
frame:140  pts:4783104 pts_time:373.68
lavfi.scene_score=0.638837
frame:141  pts:4795904 pts_time:374.68
lavfi.scene_score=0.271207
frame:142  pts:4809728 pts_time:375.76
lavfi.scene_score=0.293861
frame:143  pts:4822528 pts_time:376.76
lavfi.scene_score=0.463924
frame:144  pts:4924416 pts_time:384.72
lavfi.scene_score=0.368260
frame:145  pts:4962816 pts_time:387.72
lavfi.scene_score=0.293949
frame:146  pts:4979200 pts_time:389
lavfi.scene_score=0.277481
frame:147  pts:5023744 pts_time:392.48
lavfi.scene_score=0.363593
frame:148  pts:5042688 pts_time:393.96
lavfi.scene_score=0.295723
frame:149  pts:5085696 pts_time:397.32
lavfi.scene_score=0.385496
frame:150  pts:5098496 pts_time:398.32
lavfi.scene_score=0.381913
frame:151  pts:5115392 pts_time:399.64
lavfi.scene_score=0.312005
frame:152  pts:5128704 pts_time:400.68
lavfi.scene_score=0.354624
frame:153  pts:5142016 pts_time:401.72
lavfi.scene_score=0.408359
frame:154  pts:5160448 pts_time:403.16
lavfi.scene_score=0.357522
frame:155  pts:5162496 pts_time:403.32
lavfi.scene_score=0.250336
frame:156  pts:5193216 pts_time:405.72
lavfi.scene_score=0.346082
frame:157  pts:5236224 pts_time:409.08
lavfi.scene_score=0.325692
frame:158  pts:5266432 pts_time:411.44
lavfi.scene_score=0.441760
frame:159  pts:5281280 pts_time:412.6
lavfi.scene_score=0.379695
frame:160  pts:5306880 pts_time:414.6
lavfi.scene_score=0.321853
frame:161  pts:5328384 pts_time:416.28
lavfi.scene_score=0.352720
frame:162  pts:5374976 pts_time:419.92
lavfi.scene_score=0.292996
frame:163  pts:5400576 pts_time:421.92
lavfi.scene_score=0.369270
frame:164  pts:5418496 pts_time:423.32
lavfi.scene_score=0.310420
frame:165  pts:5432320 pts_time:424.4
lavfi.scene_score=0.263946
frame:166  pts:5444096 pts_time:425.32
lavfi.scene_score=0.386618
frame:167  pts:5454848 pts_time:426.16
lavfi.scene_score=0.334351
frame:168  pts:5472256 pts_time:427.52
lavfi.scene_score=0.469202
frame:169  pts:5480448 pts_time:428.16
lavfi.scene_score=0.449033
frame:170  pts:5492224 pts_time:429.08
lavfi.scene_score=0.428520
frame:171  pts:5499904 pts_time:429.68
lavfi.scene_score=0.338157
frame:172  pts:5510656 pts_time:430.52
lavfi.scene_score=0.475856
frame:173  pts:5517824 pts_time:431.08
lavfi.scene_score=0.558978
frame:174  pts:5531136 pts_time:432.12
lavfi.scene_score=0.345427
frame:175  pts:5539328 pts_time:432.76
lavfi.scene_score=0.412610
frame:176  pts:5558784 pts_time:434.28
lavfi.scene_score=0.519511
frame:177  pts:5573632 pts_time:435.44
lavfi.scene_score=0.307998
frame:178  pts:5703168 pts_time:445.56
lavfi.scene_score=0.326106
frame:179  pts:5708288 pts_time:445.96
lavfi.scene_score=0.373744
frame:180  pts:5714432 pts_time:446.44
lavfi.scene_score=0.363600
frame:181  pts:5719552 pts_time:446.84
lavfi.scene_score=0.479445
frame:182  pts:5732352 pts_time:447.84
lavfi.scene_score=0.518452
frame:183  pts:5741056 pts_time:448.52
lavfi.scene_score=0.645515
frame:184  pts:5749760 pts_time:449.2
lavfi.scene_score=0.397615
frame:185  pts:5760512 pts_time:450.04
lavfi.scene_score=0.408419
frame:186  pts:5767168 pts_time:450.56
lavfi.scene_score=0.464845
frame:187  pts:5767680 pts_time:450.6
lavfi.scene_score=0.255573
frame:188  pts:5773312 pts_time:451.04
lavfi.scene_score=0.408161
frame:189  pts:5782528 pts_time:451.76
lavfi.scene_score=0.397877
frame:190  pts:5792256 pts_time:452.52
lavfi.scene_score=0.671534
frame:191  pts:5796864 pts_time:452.88
lavfi.scene_score=0.367013
frame:192  pts:5809664 pts_time:453.88
lavfi.scene_score=0.381179
frame:193  pts:5830144 pts_time:455.48
lavfi.scene_score=0.329856
frame:194  pts:5841408 pts_time:456.36
lavfi.scene_score=0.356192
frame:195  pts:5867520 pts_time:458.4
lavfi.scene_score=0.474181
frame:196  pts:5892608 pts_time:460.36
lavfi.scene_score=0.307605
frame:197  pts:5911040 pts_time:461.8
lavfi.scene_score=0.379991
frame:198  pts:5932544 pts_time:463.48
lavfi.scene_score=0.466953
frame:199  pts:5945856 pts_time:464.52
lavfi.scene_score=0.349663
frame:200  pts:5961216 pts_time:465.72
lavfi.scene_score=0.409874
frame:201  pts:5972992 pts_time:466.64
lavfi.scene_score=0.419202
frame:202  pts:5995008 pts_time:468.36
lavfi.scene_score=0.331040
frame:203  pts:6011392 pts_time:469.64
lavfi.scene_score=0.253429
frame:204  pts:6027264 pts_time:470.88
lavfi.scene_score=0.382128
frame:205  pts:6042624 pts_time:472.08
lavfi.scene_score=0.353094
frame:206  pts:6056448 pts_time:473.16
lavfi.scene_score=0.409144
frame:207  pts:6087168 pts_time:475.56
lavfi.scene_score=0.325325
frame:208  pts:6105600 pts_time:477
lavfi.scene_score=0.424799
frame:209  pts:6144000 pts_time:480
lavfi.scene_score=0.380576
frame:210  pts:6162944 pts_time:481.48
lavfi.scene_score=0.469510
frame:211  pts:6184448 pts_time:483.16
lavfi.scene_score=0.371085
frame:212  pts:6193152 pts_time:483.84
lavfi.scene_score=0.453271
frame:213  pts:6269952 pts_time:489.84
lavfi.scene_score=0.482567
frame:214  pts:6292480 pts_time:491.6
lavfi.scene_score=0.330217
frame:215  pts:6308352 pts_time:492.84
lavfi.scene_score=0.442047
frame:216  pts:6318592 pts_time:493.64
lavfi.scene_score=0.400370
frame:217  pts:6345216 pts_time:495.72
lavfi.scene_score=0.332603
frame:218  pts:6359552 pts_time:496.84
lavfi.scene_score=0.490601
frame:219  pts:6391808 pts_time:499.36
lavfi.scene_score=0.421815
frame:220  pts:6408704 pts_time:500.68
lavfi.scene_score=0.555403
frame:221  pts:6444032 pts_time:503.44
lavfi.scene_score=0.541062
frame:222  pts:6462976 pts_time:504.92
lavfi.scene_score=0.450321
frame:223  pts:6496768 pts_time:507.56
lavfi.scene_score=0.403821
frame:224  pts:6516224 pts_time:509.08
lavfi.scene_score=0.454444
frame:225  pts:6541312 pts_time:511.04
lavfi.scene_score=0.255760
frame:226  pts:6556672 pts_time:512.24
lavfi.scene_score=0.482586
frame:227  pts:6591488 pts_time:514.96
lavfi.scene_score=0.535525
frame:228  pts:6608896 pts_time:516.32
lavfi.scene_score=0.327545
frame:229  pts:6651904 pts_time:519.68
lavfi.scene_score=0.739782
frame:230  pts:6675456 pts_time:521.52
lavfi.scene_score=0.759932
frame:231  pts:6728704 pts_time:525.68
lavfi.scene_score=0.742178
frame:232  pts:6766080 pts_time:528.6
lavfi.scene_score=0.694471
frame:233  pts:6808064 pts_time:531.88
lavfi.scene_score=0.699894
frame:234  pts:6842880 pts_time:534.6
lavfi.scene_score=0.279710
frame:235  pts:6901760 pts_time:539.2
lavfi.scene_score=0.639879
frame:236  pts:6928896 pts_time:541.32
lavfi.scene_score=0.689336
frame:237  pts:6958080 pts_time:543.6
lavfi.scene_score=0.561281
frame:238  pts:6994944 pts_time:546.48
lavfi.scene_score=0.530326
frame:239  pts:7022080 pts_time:548.6
lavfi.scene_score=0.627064
frame:240  pts:7041536 pts_time:550.12
lavfi.scene_score=0.848924
frame:241  pts:7073280 pts_time:552.6
lavfi.scene_score=0.704483
frame:242  pts:7156224 pts_time:559.08
lavfi.scene_score=0.672644
frame:243  pts:7203328 pts_time:562.76
lavfi.scene_score=0.566447
frame:244  pts:7248896 pts_time:566.32
lavfi.scene_score=0.732763
frame:245  pts:7277568 pts_time:568.56
lavfi.scene_score=0.824342
frame:246  pts:7350272 pts_time:574.24
lavfi.scene_score=0.628228
frame:247  pts:7410688 pts_time:578.96
lavfi.scene_score=0.594169
frame:248  pts:7458816 pts_time:582.72
lavfi.scene_score=0.728091
frame:249  pts:7514624 pts_time:587.08
lavfi.scene_score=0.863117
frame:250  pts:7563264 pts_time:590.88
lavfi.scene_score=0.857705
frame:251  pts:7607808 pts_time:594.36
lavfi.scene_score=0.420171
frame:252  pts:7715328 pts_time:602.76
lavfi.scene_score=0.612938
frame:253  pts:7767552 pts_time:606.84
lavfi.scene_score=0.616108
frame:254  pts:7822336 pts_time:611.12
lavfi.scene_score=0.661033
frame:255  pts:7860224 pts_time:614.08
lavfi.scene_score=0.499086
frame:256  pts:8022016 pts_time:626.72
lavfi.scene_score=0.566683
frame:257  pts:8174592 pts_time:638.64
lavfi.scene_score=0.690124
frame:258  pts:8203776 pts_time:640.92
lavfi.scene_score=0.650273
frame:259  pts:8230400 pts_time:643
lavfi.scene_score=0.572788
frame:260  pts:8293888 pts_time:647.96
lavfi.scene_score=0.580485
frame:261  pts:8306688 pts_time:648.96
lavfi.scene_score=0.531673
frame:262  pts:8534016 pts_time:666.72
lavfi.scene_score=0.795144
frame:263  pts:8573952 pts_time:669.84
lavfi.scene_score=0.813140
frame:264  pts:8702976 pts_time:679.92
lavfi.scene_score=0.619474
frame:265  pts:8728576 pts_time:681.92
lavfi.scene_score=0.618924
frame:266  pts:8915456 pts_time:696.52
lavfi.scene_score=0.690455
frame:267  pts:8940032 pts_time:698.44
lavfi.scene_score=0.764367
frame:268  pts:8964608 pts_time:700.36
lavfi.scene_score=0.602828
frame:269  pts:9103360 pts_time:711.2
lavfi.scene_score=0.495028
frame:270  pts:9144832 pts_time:714.44
lavfi.scene_score=0.479546
frame:271  pts:9204736 pts_time:719.12
lavfi.scene_score=0.515490
frame:272  pts:9290752 pts_time:725.84
lavfi.scene_score=0.652727
frame:273  pts:9321472 pts_time:728.24
lavfi.scene_score=0.739188
frame:274  pts:9394176 pts_time:733.92
lavfi.scene_score=0.516305
frame:275  pts:9597952 pts_time:749.84
lavfi.scene_score=0.657814
frame:276  pts:9620992 pts_time:751.64
lavfi.scene_score=0.839305
frame:277  pts:9645056 pts_time:753.52
lavfi.scene_score=0.853857
frame:278  pts:9723904 pts_time:759.68
lavfi.scene_score=0.779026
frame:279  pts:9891840 pts_time:772.8
lavfi.scene_score=0.674276
frame:280  pts:9915392 pts_time:774.64
lavfi.scene_score=0.579988
frame:281  pts:9943040 pts_time:776.8
lavfi.scene_score=0.697050
frame:282  pts:9943552 pts_time:776.84
lavfi.scene_score=0.256650
frame:283  pts:9963008 pts_time:778.36
lavfi.scene_score=0.717034
frame:284  pts:10255872 pts_time:801.24
lavfi.scene_score=0.458028
frame:285  pts:10340352 pts_time:807.84
lavfi.scene_score=0.406773
frame:286  pts:10446848 pts_time:816.16
lavfi.scene_score=0.696647
frame:287  pts:10478592 pts_time:818.64
lavfi.scene_score=0.632510
frame:288  pts:10781184 pts_time:842.28
lavfi.scene_score=0.682826
frame:289  pts:10811392 pts_time:844.64
lavfi.scene_score=0.655590
frame:290  pts:10976768 pts_time:857.56
lavfi.scene_score=0.676179
frame:291  pts:11007488 pts_time:859.96
lavfi.scene_score=0.767588
frame:292  pts:11216896 pts_time:876.32
lavfi.scene_score=0.382403
frame:293  pts:11228160 pts_time:877.2
lavfi.scene_score=0.296311
frame:294  pts:11235328 pts_time:877.76
lavfi.scene_score=0.674872
frame:295  pts:11370496 pts_time:888.32
lavfi.scene_score=0.696997
frame:296  pts:11390976 pts_time:889.92
lavfi.scene_score=0.686690
frame:297  pts:11411456 pts_time:891.52
lavfi.scene_score=0.675655
frame:298  pts:11484160 pts_time:897.2
lavfi.scene_score=0.475137
frame:299  pts:11584000 pts_time:905
lavfi.scene_score=0.672686
frame:300  pts:11615744 pts_time:907.48
lavfi.scene_score=0.627590
frame:301  pts:11956736 pts_time:934.12
lavfi.scene_score=0.529205
frame:302  pts:12097024 pts_time:945.08
lavfi.scene_score=0.821182
frame:303  pts:12116480 pts_time:946.6
lavfi.scene_score=0.677074
frame:304  pts:12153856 pts_time:949.52
lavfi.scene_score=0.826251
frame:305  pts:12165632 pts_time:950.44
lavfi.scene_score=0.676368
frame:306  pts:12166144 pts_time:950.48
lavfi.scene_score=0.283988
frame:307  pts:12177408 pts_time:951.36
lavfi.scene_score=0.386036
frame:308  pts:12216832 pts_time:954.44
lavfi.scene_score=0.982150
frame:309  pts:12229632 pts_time:955.44
lavfi.scene_score=0.632101
frame:310  pts:12257792 pts_time:957.64
lavfi.scene_score=0.881856
frame:311  pts:12318208 pts_time:962.36
lavfi.scene_score=0.965340
frame:312  pts:12327936 pts_time:963.12
lavfi.scene_score=1.000000
frame:313  pts:12352512 pts_time:965.04
lavfi.scene_score=1.000000
frame:314  pts:12367872 pts_time:966.24
lavfi.scene_score=1.000000
frame:315  pts:12373504 pts_time:966.68
lavfi.scene_score=0.896857
frame:316  pts:12380160 pts_time:967.2
lavfi.scene_score=0.898487
frame:317  pts:12389888 pts_time:967.96
lavfi.scene_score=0.615456
frame:318  pts:12397056 pts_time:968.52
lavfi.scene_score=0.795888
frame:319  pts:12402176 pts_time:968.92
lavfi.scene_score=0.438677
frame:320  pts:12409344 pts_time:969.48
lavfi.scene_score=0.746685
frame:321  pts:12426240 pts_time:970.8
lavfi.scene_score=0.405632
frame:322  pts:12435456 pts_time:971.52
lavfi.scene_score=0.499976
frame:323  pts:12443648 pts_time:972.16
lavfi.scene_score=0.560856
frame:324  pts:12470784 pts_time:974.28
lavfi.scene_score=0.709892
frame:325  pts:12494336 pts_time:976.12
lavfi.scene_score=0.573543
frame:326  pts:12601856 pts_time:984.52
lavfi.scene_score=0.252937
frame:327  pts:12634624 pts_time:987.08
lavfi.scene_score=0.808554
frame:328  pts:12644864 pts_time:987.88
lavfi.scene_score=0.799526
frame:329  pts:12647424 pts_time:988.08
lavfi.scene_score=0.287796
frame:330  pts:12649472 pts_time:988.24
lavfi.scene_score=0.328320
frame:331  pts:12694016 pts_time:991.72
lavfi.scene_score=0.507566
frame:332  pts:12718592 pts_time:993.64
lavfi.scene_score=0.608405
frame:333  pts:12821504 pts_time:1001.68
lavfi.scene_score=0.586147
frame:334  pts:12834304 pts_time:1002.68
lavfi.scene_score=0.826343
frame:335  pts:12968960 pts_time:1013.2
lavfi.scene_score=0.846577
frame:336  pts:13028352 pts_time:1017.84
lavfi.scene_score=0.692019
frame:337  pts:13045760 pts_time:1019.2
lavfi.scene_score=0.626545
frame:338  pts:13065728 pts_time:1020.76
lavfi.scene_score=0.262725
frame:339  pts:13071872 pts_time:1021.24
lavfi.scene_score=0.446373
frame:340  pts:13090816 pts_time:1022.72
lavfi.scene_score=0.581785
